<?xml version="1.0" encoding="UTF-8"?>
<svg version="1.1" viewBox="0 0 282 47" xmlns="http://www.w3.org/2000/svg">
    <g transform="translate(-1.3419 -343.33)">
        <g fill="#e6e6e6">
            <path d="m26.35 383q-1.4191-3.6492-3.041-8.3121-1.5712-4.7136-2.889-9.7819-1.3178 5.0684-2.889 9.7819-1.5712 4.6629-2.9903 8.3121h-4.1054q-2.3314-5.2204-4.5615-11.911-2.2301-6.6902-4.2067-14.445h5.0683q0.50684 2.3821 1.2164 5.1697 0.70957 2.7876 1.4698 5.5752 0.81094 2.7876 1.6726 5.3724 0.86162 2.5849 1.6219 4.5108 0.86162-2.3821 1.6726-5.0177 0.86162-2.6862 1.6219-5.3725 0.76025-2.7369 1.4191-5.3218 0.70957-2.6355 1.2164-4.9163h3.9026q0.45615 2.2808 1.115 4.9163 0.65888 2.5849 1.4191 5.3218 0.76025 2.6862 1.5712 5.3725 0.86162 2.6355 1.7232 5.0177 0.76025-1.926 1.5712-4.5108 0.86162-2.5849 1.6726-5.3724 0.81094-2.7876 1.5205-5.5752 0.70957-2.7876 1.2164-5.1697h4.8656q-1.9767 7.7546-4.2067 14.445-2.2301 6.6902-4.5615 11.911z"/>
            <path d="m48.922 383h-4.7136v-26.355h4.7136z"/>
            <path d="m57.077 357.41q1.6219-0.40547 4.3081-0.86162t6.1834-0.45615q3.1424 0 5.2204 0.9123 2.078 0.86162 3.2944 2.4835 1.2671 1.5712 1.7739 3.8013t0.50684 4.9163v14.8h-4.7136v-13.786q0-2.4328-0.35478-4.156-0.3041-1.7232-1.0644-2.7876-0.76025-1.0644-2.0273-1.5205-1.2671-0.50684-3.1424-0.50684-0.76025 0-1.5712 0.0507t-1.5712 0.15205q-0.70957 0.0507-1.3178 0.15205-0.55752 0.10137-0.81094 0.15205v22.25h-4.7136z"/>
            <path d="m103.21 362.22q-0.86162-0.70957-2.4835-1.3685-1.6219-0.65889-3.5478-0.65889-2.0273 0-3.4972 0.76026-1.4191 0.70957-2.3314 2.0273-0.9123 1.2671-1.3178 3.041t-0.40547 3.8013q0 4.6122 2.2808 7.1464 2.2808 2.4835 6.082 2.4835 1.926 0 3.1931-0.15205 1.3178-0.20274 2.0273-0.40547zm0-17.739 4.7136-0.81094v38.57q-1.6219 0.45615-4.156 0.9123-2.5342 0.45615-5.8286 0.45615-3.041 0-5.4738-0.96298-2.4328-0.96299-4.156-2.7369t-2.6862-4.3081q-0.9123-2.5849-0.9123-5.7779 0-3.041 0.76025-5.5752 0.81094-2.5342 2.3314-4.3588 1.5205-1.8246 3.6999-2.8383 2.2301-1.0137 5.0684-1.0137 2.2808 0 4.004 0.6082 1.7739 0.6082 2.6356 1.1657z"/>
            <path d="m143.75 383.51q-4.3588-0.10137-6.1834-1.8753-1.8246-1.7739-1.8246-5.5245v-31.627l4.7136-0.81094v31.677q0 1.1657 0.20274 1.926 0.20273 0.76025 0.65888 1.2164t1.2164 0.70957q0.76026 0.20273 1.8753 0.35478z"/>
            <path d="m126.36 343.67q1.7739 0 3.041 0.25342 1.2671 0.20273 1.8246 0.40546l-0.65888 4.0547q-0.55752-0.20274-1.5205-0.40547-0.96298-0.25342-2.3314-0.25342-3.2944 0-4.6122 1.8246-1.3178 1.7739-1.3178 4.8149v2.2808h10.137v3.9533h-10.137v22.402h-4.7136v-28.738q0-5.0684 2.4835-7.8053 2.4835-2.7876 7.8053-2.7876z"/>
            <path d="m218.37 383q-1.4191-3.6492-3.041-8.3121-1.5712-4.7136-2.889-9.7819-1.3178 5.0684-2.889 9.7819-1.5712 4.6629-2.9903 8.3121h-4.1054q-2.3314-5.2204-4.5615-11.911-2.2301-6.6902-4.2067-14.445h5.0684q0.50684 2.3821 1.2164 5.1697 0.70957 2.7876 1.4698 5.5752 0.81093 2.7876 1.6726 5.3724t1.6219 4.5108q0.86162-2.3821 1.6726-5.0177 0.86162-2.6862 1.6219-5.3725 0.76025-2.7369 1.4191-5.3218 0.70957-2.6355 1.2164-4.9163h3.9026q0.45615 2.2808 1.115 4.9163 0.65888 2.5849 1.4191 5.3218 0.76025 2.6862 1.5712 5.3725 0.86162 2.6355 1.7232 5.0177 0.76026-1.926 1.5712-4.5108 0.86162-2.5849 1.6726-5.3724 0.81093-2.7876 1.5205-5.5752t1.2164-5.1697h4.8656q-1.9766 7.7546-4.2067 14.445-2.2301 6.6902-4.5615 11.911z"/>
            <path d="m240.22 380.27q0 1.3685-0.9123 2.3821-0.91231 1.0137-2.4835 1.0137-1.5712 0-2.4835-1.0137t-0.9123-2.3821 0.9123-2.3821q0.91231-1.0137 2.4835-1.0137 1.5712 0 2.4835 1.0137t0.9123 2.3821z"/>
            <path d="m251.83 383h-4.7136v-26.355h4.7136z"/>
            <path d="m283.25 369.82q0 3.1424-0.9123 5.6766-0.91231 2.5342-2.5849 4.3588-1.6219 1.8246-3.9026 2.8383-2.2808 0.96299-4.967 0.96299t-4.967-0.96299q-2.2808-1.0137-3.9533-2.8383-1.6219-1.8246-2.5342-4.3588-0.91231-2.5342-0.91231-5.6766 0-3.0917 0.91231-5.6259 0.9123-2.5848 2.5342-4.4095 1.6726-1.8246 3.9533-2.7876 2.2808-1.0137 4.967-1.0137t4.967 1.0137q2.2808 0.96299 3.9026 2.7876 1.6726 1.8246 2.5849 4.4095 0.9123 2.5342 0.9123 5.6259zm-4.9163 0q0-4.4602-2.0273-7.045-1.9766-2.6356-5.4231-2.6356t-5.4738 2.6356q-1.9767 2.5848-1.9767 7.045t1.9767 7.0957q2.0273 2.5849 5.4738 2.5849t5.4231-2.5849q2.0273-2.6355 2.0273-7.0957z"/>
        </g>
        <g fill="#2bdfec">
            <path d="m176.09 355.06-1.2865 2.5319a12.912 12.912 0 0 1 2.0356 1.3694l1.8611-2.1457a15.751 15.751 0 0 0-2.6102-1.7556z" fill-opacity=".24597"/>
            <path d="m172.47 353.66-0.63069 2.7687a12.912 12.912 0 0 1 2.3084 0.83157l1.2816-2.5332a15.751 15.751 0 0 0-2.9594-1.0671z" fill-opacity=".5"/>
            <path d="m168.66 353.18 0.0579 2.8394a12.912 12.912 0 0 1 2.4411 0.24852l0.63069-2.7687a15.751 15.751 0 0 0-3.1297-0.31915z" fill-opacity=".75"/>
            <path d="m167.96 353.2a15.751 15.751 0 0 0-15.075 16.058 15.751 15.751 0 0 0 16.07 15.427 15.751 15.751 0 0 0 15.426-16.07 15.751 15.751 0 0 0-2.6765-8.4657l-2.3219 1.6354a12.912 12.912 0 0 1 2.1597 6.8882 12.912 12.912 0 0 1-12.645 13.173 12.912 12.912 0 0 1-13.172-12.646 12.912 12.912 0 0 1 12.294-13.16z"/>
        </g>
        <g fill="#068d8e">
            <path d="m158.16 350.96 1.4517 2.5912a17.837 17.837 0 0 0-2.9211 2.1419l-2.0353-2.1629a20.808 20.808 0 0 1 3.5047-2.5701z" fill-opacity=".24597"/>
            <path d="m162.82 348.96 0.78115 2.8662a17.837 17.837 0 0 0-3.3536 1.3709l-1.4511-2.592a20.808 20.808 0 0 1 4.0236-1.645z" fill-opacity=".49597"/>
            <path d="m167.82 348.14 0.0644 2.9703a17.837 17.837 0 0 0-3.5846 0.51931l-0.78112-2.8669a20.808 20.808 0 0 1 4.3013-0.62276z" fill-opacity=".75403"/>
            <path d="m168.55 348.13a20.808 20.808 0 0 1 20.886 20.357 20.808 20.808 0 0 1-20.352 21.254 20.808 20.808 0 0 1-21.254-20.351 20.808 20.808 0 0 1 3.1128-11.404l2.4982 1.6072a17.837 17.837 0 0 0-2.6408 9.7329 17.837 17.837 0 0 0 18.22 17.446 17.837 17.837 0 0 0 17.446-18.22 17.837 17.837 0 0 0-17.852-17.451z"/>
        </g>
    </g>
</svg>
